<?xml version="1.0" encoding="UTF-8" standalone="no"?>
<!DOCTYPE svg PUBLIC "-//W3C//DTD SVG 1.1//EN"
 "http://www.w3.org/Graphics/SVG/1.1/DTD/svg11.dtd">
<!-- Generated by graphviz version 2.40.1 (20161225.0304)
 -->
<!-- Title: dependencies Pages: 1 -->
<svg width="504pt" height="284pt"
 viewBox="0.00 0.00 504.00 284.00" xmlns="http://www.w3.org/2000/svg" xmlns:xlink="http://www.w3.org/1999/xlink">
<g id="graph0" class="graph" transform="scale(1 1) rotate(0) translate(4 280)">
<title>dependencies</title>
<polygon fill="#ffffff" stroke="transparent" points="-4,4 -4,-280 500,-280 500,4 -4,4"/>
<text text-anchor="start" x="227.0091" y="-42.4" font-family="sans-serif" font-weight="bold" font-size="14.00" fill="#000000">Legend</text>
<polygon fill="#ffffb3" stroke="transparent" points="14,-10 14,-30 34,-30 34,-10 14,-10"/>
<text text-anchor="start" x="37.629" y="-15.4" font-family="sans-serif" font-size="14.00" fill="#000000"> &#160;Declarations</text>
<polygon fill="#8dd3c7" stroke="transparent" points="127,-10 127,-30 147,-30 147,-10 127,-10"/>
<text text-anchor="start" x="150.7251" y="-15.4" font-family="sans-serif" font-size="14.00" fill="#000000"> &#160;Module</text>
<polygon fill="#80b1d3" stroke="transparent" points="213,-10 213,-30 233,-30 233,-10 213,-10"/>
<text text-anchor="start" x="236.7812" y="-15.4" font-family="sans-serif" font-size="14.00" fill="#000000"> &#160;Bootstrap</text>
<polygon fill="#fdb462" stroke="transparent" points="310,-10 310,-30 330,-30 330,-10 310,-10"/>
<text text-anchor="start" x="333.6732" y="-15.4" font-family="sans-serif" font-size="14.00" fill="#000000"> &#160;Providers</text>
<polygon fill="#fb8072" stroke="transparent" points="406,-10 406,-30 426,-30 426,-10 406,-10"/>
<text text-anchor="start" x="429.7258" y="-15.4" font-family="sans-serif" font-size="14.00" fill="#000000"> &#160;Exports</text>
<g id="clust1" class="cluster">
<title>cluster_GroupingModule</title>
<polygon fill="none" stroke="#000000" stroke-dasharray="1,5" points="95,-70 95,-268 401,-268 401,-70 95,-70"/>
</g>
<g id="clust2" class="cluster">
<title>cluster_GroupingModule_declarations</title>
<polygon fill="none" stroke="#000000" points="243,-78 243,-130 393,-130 393,-78 243,-78"/>
</g>
<g id="clust6" class="cluster">
<title>cluster_GroupingModule_bootstrap</title>
<polygon fill="none" stroke="#000000" points="171,-208 171,-260 325,-260 325,-208 171,-208"/>
</g>
<g id="clust7" class="cluster">
<title>cluster_GroupingModule_providers</title>
<polygon fill="none" stroke="#000000" points="103,-78 103,-130 235,-130 235,-78 103,-78"/>
</g>
<!-- GroupingComponent -->
<g id="node1" class="node">
<title>GroupingComponent</title>
<polygon fill="#ffffb3" stroke="#000000" points="385.4902,-122 250.5098,-122 250.5098,-86 385.4902,-86 385.4902,-122"/>
<text text-anchor="middle" x="318" y="-99.8" font-family="Times,serif" font-size="14.00" fill="#000000">GroupingComponent</text>
</g>
<!-- GroupingModule -->
<g id="node2" class="node">
<title>GroupingModule</title>
<polygon fill="#8dd3c7" stroke="#000000" points="304.7078,-187 301.7078,-191 280.7078,-191 277.7078,-187 191.2922,-187 191.2922,-151 304.7078,-151 304.7078,-187"/>
<text text-anchor="middle" x="248" y="-164.8" font-family="Times,serif" font-size="14.00" fill="#000000">GroupingModule</text>
</g>
<!-- GroupingComponent&#45;&gt;GroupingModule -->
<g id="edge1" class="edge">
<title>GroupingComponent&#45;&gt;GroupingModule</title>
<path fill="none" stroke="#000000" d="M277.5544,-122.1061C277.5544,-122.1061 277.5544,-140.991 277.5544,-140.991"/>
<polygon fill="#000000" stroke="#000000" points="274.0544,-140.9909 277.5544,-150.991 281.0544,-140.991 274.0544,-140.9909"/>
</g>
<!-- GroupingComponent  -->
<g id="node3" class="node">
<title>GroupingComponent </title>
<polygon fill="#80b1d3" stroke="#000000" points="317.4911,-252 178.5089,-252 178.5089,-216 317.4911,-216 317.4911,-252"/>
<text text-anchor="middle" x="248" y="-229.8" font-family="Times,serif" font-size="14.00" fill="#000000">GroupingComponent </text>
</g>
<!-- GroupingModule&#45;&gt;GroupingComponent  -->
<g id="edge2" class="edge">
<title>GroupingModule&#45;&gt;GroupingComponent </title>
<path fill="none" stroke="#000000" stroke-dasharray="1,5" d="M248,-187.1061C248,-187.1061 248,-205.991 248,-205.991"/>
<polygon fill="#000000" stroke="#000000" points="244.5001,-205.9909 248,-215.991 251.5001,-205.991 244.5001,-205.9909"/>
</g>
<!-- DataService -->
<g id="node4" class="node">
<title>DataService</title>
<ellipse fill="#fdb462" stroke="#000000" cx="169" cy="-104" rx="58.4415" ry="18"/>
<text text-anchor="middle" x="169" y="-99.8" font-family="Times,serif" font-size="14.00" fill="#000000">DataService</text>
</g>
<!-- DataService&#45;&gt;GroupingModule -->
<g id="edge3" class="edge">
<title>DataService&#45;&gt;GroupingModule</title>
<path fill="none" stroke="#000000" d="M209.3083,-117.1537C209.3083,-117.1537 209.3083,-140.6938 209.3083,-140.6938"/>
<polygon fill="#000000" stroke="#000000" points="205.8084,-140.6938 209.3083,-150.6938 212.8084,-140.6939 205.8084,-140.6938"/>
</g>
</g>
</svg>
