<?xml version="1.0" encoding="UTF-8" standalone="no"?>
<!DOCTYPE svg PUBLIC "-//W3C//DTD SVG 1.1//EN"
 "http://www.w3.org/Graphics/SVG/1.1/DTD/svg11.dtd">
<!-- Generated by graphviz version 2.40.1 (20161225.0304)
 -->
<!-- Title: dependencies Pages: 1 -->
<svg width="772pt" height="284pt"
 viewBox="0.00 0.00 772.00 284.00" xmlns="http://www.w3.org/2000/svg" xmlns:xlink="http://www.w3.org/1999/xlink">
<g id="graph0" class="graph" transform="scale(1 1) rotate(0) translate(4 280)">
<title>dependencies</title>
<polygon fill="#ffffff" stroke="transparent" points="-4,4 -4,-280 768,-280 768,4 -4,4"/>
<text text-anchor="start" x="361.0091" y="-42.4" font-family="sans-serif" font-weight="bold" font-size="14.00" fill="#000000">Legend</text>
<polygon fill="#ffffb3" stroke="transparent" points="148,-10 148,-30 168,-30 168,-10 148,-10"/>
<text text-anchor="start" x="171.629" y="-15.4" font-family="sans-serif" font-size="14.00" fill="#000000"> &#160;Declarations</text>
<polygon fill="#8dd3c7" stroke="transparent" points="261,-10 261,-30 281,-30 281,-10 261,-10"/>
<text text-anchor="start" x="284.7251" y="-15.4" font-family="sans-serif" font-size="14.00" fill="#000000"> &#160;Module</text>
<polygon fill="#80b1d3" stroke="transparent" points="347,-10 347,-30 367,-30 367,-10 347,-10"/>
<text text-anchor="start" x="370.7812" y="-15.4" font-family="sans-serif" font-size="14.00" fill="#000000"> &#160;Bootstrap</text>
<polygon fill="#fdb462" stroke="transparent" points="444,-10 444,-30 464,-30 464,-10 444,-10"/>
<text text-anchor="start" x="467.6732" y="-15.4" font-family="sans-serif" font-size="14.00" fill="#000000"> &#160;Providers</text>
<polygon fill="#fb8072" stroke="transparent" points="540,-10 540,-30 560,-30 560,-10 540,-10"/>
<text text-anchor="start" x="563.7258" y="-15.4" font-family="sans-serif" font-size="14.00" fill="#000000"> &#160;Exports</text>
<g id="clust1" class="cluster">
<title>cluster_AppModule</title>
<polygon fill="none" stroke="#000000" stroke-dasharray="1,5" points="8,-70 8,-268 756,-268 756,-70 8,-70"/>
</g>
<g id="clust2" class="cluster">
<title>cluster_AppModule_declarations</title>
<polygon fill="none" stroke="#000000" points="626,-78 626,-130 748,-130 748,-78 626,-78"/>
</g>
<g id="clust4" class="cluster">
<title>cluster_AppModule_imports</title>
<polygon fill="none" stroke="#000000" points="16,-78 16,-130 618,-130 618,-78 16,-78"/>
</g>
<g id="clust6" class="cluster">
<title>cluster_AppModule_bootstrap</title>
<polygon fill="none" stroke="#000000" points="254,-208 254,-260 378,-260 378,-208 254,-208"/>
</g>
<!-- AppComponent -->
<g id="node1" class="node">
<title>AppComponent</title>
<polygon fill="#ffffb3" stroke="#000000" points="739.9399,-122 634.0601,-122 634.0601,-86 739.9399,-86 739.9399,-122"/>
<text text-anchor="middle" x="687" y="-99.8" font-family="Times,serif" font-size="14.00" fill="#000000">AppComponent</text>
</g>
<!-- AppModule -->
<g id="node2" class="node">
<title>AppModule</title>
<polygon fill="#8dd3c7" stroke="#000000" points="357.6571,-187 354.6571,-191 333.6571,-191 330.6571,-187 274.3429,-187 274.3429,-151 357.6571,-151 357.6571,-187"/>
<text text-anchor="middle" x="316" y="-164.8" font-family="Times,serif" font-size="14.00" fill="#000000">AppModule</text>
</g>
<!-- AppComponent&#45;&gt;AppModule -->
<g id="edge1" class="edge">
<title>AppComponent&#45;&gt;AppModule</title>
<path fill="none" stroke="#000000" d="M687,-122.2921C687,-144.2057 687,-178 687,-178 687,-178 367.8372,-178 367.8372,-178"/>
<polygon fill="#000000" stroke="#000000" points="367.8373,-174.5001 357.8372,-178 367.8372,-181.5001 367.8373,-174.5001"/>
</g>
<!-- AppComponent  -->
<g id="node8" class="node">
<title>AppComponent </title>
<polygon fill="#80b1d3" stroke="#000000" points="370.439,-252 261.561,-252 261.561,-216 370.439,-216 370.439,-252"/>
<text text-anchor="middle" x="316" y="-229.8" font-family="Times,serif" font-size="14.00" fill="#000000">AppComponent </text>
</g>
<!-- AppModule&#45;&gt;AppComponent  -->
<g id="edge8" class="edge">
<title>AppModule&#45;&gt;AppComponent </title>
<path fill="none" stroke="#000000" stroke-dasharray="1,5" d="M316,-187.1061C316,-187.1061 316,-205.991 316,-205.991"/>
<polygon fill="#000000" stroke="#000000" points="312.5001,-205.9909 316,-215.991 319.5001,-205.991 312.5001,-205.9909"/>
</g>
<!-- GroupModule -->
<g id="node3" class="node">
<title>GroupModule</title>
<polygon fill="#8dd3c7" stroke="#000000" points="609.8175,-122 606.8175,-126 585.8175,-126 582.8175,-122 514.1825,-122 514.1825,-86 609.8175,-86 609.8175,-122"/>
<text text-anchor="middle" x="562" y="-99.8" font-family="Times,serif" font-size="14.00" fill="#000000">GroupModule</text>
</g>
<!-- GroupModule&#45;&gt;AppModule -->
<g id="edge2" class="edge">
<title>GroupModule&#45;&gt;AppModule</title>
<path fill="none" stroke="#000000" d="M562,-122.1061C562,-141.3391 562,-169 562,-169 562,-169 367.7305,-169 367.7305,-169"/>
<polygon fill="#000000" stroke="#000000" points="367.7306,-165.5001 357.7305,-169 367.7305,-172.5001 367.7306,-165.5001"/>
</g>
<!-- GroupingModule -->
<g id="node4" class="node">
<title>GroupingModule</title>
<polygon fill="#8dd3c7" stroke="#000000" points="496.7078,-122 493.7078,-126 472.7078,-126 469.7078,-122 383.2922,-122 383.2922,-86 496.7078,-86 496.7078,-122"/>
<text text-anchor="middle" x="440" y="-99.8" font-family="Times,serif" font-size="14.00" fill="#000000">GroupingModule</text>
</g>
<!-- GroupingModule&#45;&gt;AppModule -->
<g id="edge3" class="edge">
<title>GroupingModule&#45;&gt;AppModule</title>
<path fill="none" stroke="#000000" d="M440,-122.027C440,-138.3976 440,-160 440,-160 440,-160 367.9807,-160 367.9807,-160"/>
<polygon fill="#000000" stroke="#000000" points="367.9808,-156.5001 357.9807,-160 367.9807,-163.5001 367.9808,-156.5001"/>
</g>
<!-- LayoutModule -->
<g id="node5" class="node">
<title>LayoutModule</title>
<polygon fill="#8dd3c7" stroke="#000000" points="365.7078,-122 362.7078,-126 341.7078,-126 338.7078,-122 266.2922,-122 266.2922,-86 365.7078,-86 365.7078,-122"/>
<text text-anchor="middle" x="316" y="-99.8" font-family="Times,serif" font-size="14.00" fill="#000000">LayoutModule</text>
</g>
<!-- LayoutModule&#45;&gt;AppModule -->
<g id="edge4" class="edge">
<title>LayoutModule&#45;&gt;AppModule</title>
<path fill="none" stroke="#000000" d="M316,-122.1061C316,-122.1061 316,-140.991 316,-140.991"/>
<polygon fill="#000000" stroke="#000000" points="312.5001,-140.9909 316,-150.991 319.5001,-140.991 312.5001,-140.9909"/>
</g>
<!-- PaletteModule -->
<g id="node6" class="node">
<title>PaletteModule</title>
<polygon fill="#8dd3c7" stroke="#000000" points="248.6486,-122 245.6486,-126 224.6486,-126 221.6486,-122 151.3514,-122 151.3514,-86 248.6486,-86 248.6486,-122"/>
<text text-anchor="middle" x="200" y="-99.8" font-family="Times,serif" font-size="14.00" fill="#000000">PaletteModule</text>
</g>
<!-- PaletteModule&#45;&gt;AppModule -->
<g id="edge5" class="edge">
<title>PaletteModule&#45;&gt;AppModule</title>
<path fill="none" stroke="#000000" d="M200,-122.027C200,-138.3976 200,-160 200,-160 200,-160 264.1213,-160 264.1213,-160"/>
<polygon fill="#000000" stroke="#000000" points="264.1214,-163.5001 274.1213,-160 264.1213,-156.5001 264.1214,-163.5001"/>
</g>
<!-- PlanningModule -->
<g id="node7" class="node">
<title>PlanningModule</title>
<polygon fill="#8dd3c7" stroke="#000000" points="133.8287,-122 130.8287,-126 109.8287,-126 106.8287,-122 24.1713,-122 24.1713,-86 133.8287,-86 133.8287,-122"/>
<text text-anchor="middle" x="79" y="-99.8" font-family="Times,serif" font-size="14.00" fill="#000000">PlanningModule</text>
</g>
<!-- PlanningModule&#45;&gt;AppModule -->
<g id="edge6" class="edge">
<title>PlanningModule&#45;&gt;AppModule</title>
<path fill="none" stroke="#000000" d="M60.7786,-122.2921C60.7786,-144.2057 60.7786,-178 60.7786,-178 60.7786,-178 264.1412,-178 264.1412,-178"/>
<polygon fill="#000000" stroke="#000000" points="264.1412,-181.5001 274.1412,-178 264.1411,-174.5001 264.1412,-181.5001"/>
</g>
<!-- PlanningModule&#45;&gt;AppModule -->
<g id="edge7" class="edge">
<title>PlanningModule&#45;&gt;AppModule</title>
<path fill="none" stroke="#000000" d="M97.2214,-122.1061C97.2214,-141.3391 97.2214,-169 97.2214,-169 97.2214,-169 264.3345,-169 264.3345,-169"/>
<polygon fill="#000000" stroke="#000000" points="264.3345,-172.5001 274.3345,-169 264.3344,-165.5001 264.3345,-172.5001"/>
</g>
</g>
</svg>
