<?xml version="1.0" encoding="UTF-8" standalone="no"?>
<!DOCTYPE svg PUBLIC "-//W3C//DTD SVG 1.1//EN"
 "http://www.w3.org/Graphics/SVG/1.1/DTD/svg11.dtd">
<!-- Generated by graphviz version 2.40.1 (20161225.0304)
 -->
<!-- Title: dependencies Pages: 1 -->
<svg width="645pt" height="284pt"
 viewBox="0.00 0.00 645.00 284.00" xmlns="http://www.w3.org/2000/svg" xmlns:xlink="http://www.w3.org/1999/xlink">
<g id="graph0" class="graph" transform="scale(1 1) rotate(0) translate(4 280)">
<title>dependencies</title>
<polygon fill="#ffffff" stroke="transparent" points="-4,4 -4,-280 641,-280 641,4 -4,4"/>
<text text-anchor="start" x="297.5091" y="-42.4" font-family="sans-serif" font-weight="bold" font-size="14.00" fill="#000000">Legend</text>
<polygon fill="#ffffb3" stroke="transparent" points="84.5,-10 84.5,-30 104.5,-30 104.5,-10 84.5,-10"/>
<text text-anchor="start" x="108.129" y="-15.4" font-family="sans-serif" font-size="14.00" fill="#000000"> &#160;Declarations</text>
<polygon fill="#8dd3c7" stroke="transparent" points="197.5,-10 197.5,-30 217.5,-30 217.5,-10 197.5,-10"/>
<text text-anchor="start" x="221.2251" y="-15.4" font-family="sans-serif" font-size="14.00" fill="#000000"> &#160;Module</text>
<polygon fill="#80b1d3" stroke="transparent" points="283.5,-10 283.5,-30 303.5,-30 303.5,-10 283.5,-10"/>
<text text-anchor="start" x="307.2812" y="-15.4" font-family="sans-serif" font-size="14.00" fill="#000000"> &#160;Bootstrap</text>
<polygon fill="#fdb462" stroke="transparent" points="380.5,-10 380.5,-30 400.5,-30 400.5,-10 380.5,-10"/>
<text text-anchor="start" x="404.1732" y="-15.4" font-family="sans-serif" font-size="14.00" fill="#000000"> &#160;Providers</text>
<polygon fill="#fb8072" stroke="transparent" points="476.5,-10 476.5,-30 496.5,-30 496.5,-10 476.5,-10"/>
<text text-anchor="start" x="500.2258" y="-15.4" font-family="sans-serif" font-size="14.00" fill="#000000"> &#160;Exports</text>
<g id="clust1" class="cluster">
<title>cluster_AppModule</title>
<polygon fill="none" stroke="#000000" stroke-dasharray="1,5" points="8,-70 8,-268 629,-268 629,-70 8,-70"/>
</g>
<g id="clust2" class="cluster">
<title>cluster_AppModule_declarations</title>
<polygon fill="none" stroke="#000000" points="499,-78 499,-130 621,-130 621,-78 499,-78"/>
</g>
<g id="clust4" class="cluster">
<title>cluster_AppModule_imports</title>
<polygon fill="none" stroke="#000000" points="16,-78 16,-130 491,-130 491,-78 16,-78"/>
</g>
<g id="clust6" class="cluster">
<title>cluster_AppModule_bootstrap</title>
<polygon fill="none" stroke="#000000" points="251,-208 251,-260 375,-260 375,-208 251,-208"/>
</g>
<!-- AppComponent -->
<g id="node1" class="node">
<title>AppComponent</title>
<polygon fill="#ffffb3" stroke="#000000" points="612.9399,-122 507.0601,-122 507.0601,-86 612.9399,-86 612.9399,-122"/>
<text text-anchor="middle" x="560" y="-99.8" font-family="Times,serif" font-size="14.00" fill="#000000">AppComponent</text>
</g>
<!-- AppModule -->
<g id="node2" class="node">
<title>AppModule</title>
<polygon fill="#8dd3c7" stroke="#000000" points="354.6571,-187 351.6571,-191 330.6571,-191 327.6571,-187 271.3429,-187 271.3429,-151 354.6571,-151 354.6571,-187"/>
<text text-anchor="middle" x="313" y="-164.8" font-family="Times,serif" font-size="14.00" fill="#000000">AppModule</text>
</g>
<!-- AppComponent&#45;&gt;AppModule -->
<g id="edge1" class="edge">
<title>AppComponent&#45;&gt;AppModule</title>
<path fill="none" stroke="#000000" d="M560,-122.2843C560,-143.3211 560,-175 560,-175 560,-175 364.9002,-175 364.9002,-175"/>
<polygon fill="#000000" stroke="#000000" points="364.9002,-171.5001 354.9002,-175 364.9001,-178.5001 364.9002,-171.5001"/>
</g>
<!-- AppComponent  -->
<g id="node7" class="node">
<title>AppComponent </title>
<polygon fill="#80b1d3" stroke="#000000" points="367.439,-252 258.561,-252 258.561,-216 367.439,-216 367.439,-252"/>
<text text-anchor="middle" x="313" y="-229.8" font-family="Times,serif" font-size="14.00" fill="#000000">AppComponent </text>
</g>
<!-- AppModule&#45;&gt;AppComponent  -->
<g id="edge6" class="edge">
<title>AppModule&#45;&gt;AppComponent </title>
<path fill="none" stroke="#000000" stroke-dasharray="1,5" d="M313,-187.1061C313,-187.1061 313,-205.991 313,-205.991"/>
<polygon fill="#000000" stroke="#000000" points="309.5001,-205.9909 313,-215.991 316.5001,-205.991 309.5001,-205.9909"/>
</g>
<!-- GroupModule -->
<g id="node3" class="node">
<title>GroupModule</title>
<polygon fill="#8dd3c7" stroke="#000000" points="482.8175,-122 479.8175,-126 458.8175,-126 455.8175,-122 387.1825,-122 387.1825,-86 482.8175,-86 482.8175,-122"/>
<text text-anchor="middle" x="435" y="-99.8" font-family="Times,serif" font-size="14.00" fill="#000000">GroupModule</text>
</g>
<!-- GroupModule&#45;&gt;AppModule -->
<g id="edge2" class="edge">
<title>GroupModule&#45;&gt;AppModule</title>
<path fill="none" stroke="#000000" d="M435,-122.0225C435,-139.3734 435,-163 435,-163 435,-163 364.9855,-163 364.9855,-163"/>
<polygon fill="#000000" stroke="#000000" points="364.9855,-159.5001 354.9855,-163 364.9854,-166.5001 364.9855,-159.5001"/>
</g>
<!-- GroupingModule -->
<g id="node4" class="node">
<title>GroupingModule</title>
<polygon fill="#8dd3c7" stroke="#000000" points="369.7078,-122 366.7078,-126 345.7078,-126 342.7078,-122 256.2922,-122 256.2922,-86 369.7078,-86 369.7078,-122"/>
<text text-anchor="middle" x="313" y="-99.8" font-family="Times,serif" font-size="14.00" fill="#000000">GroupingModule</text>
</g>
<!-- GroupingModule&#45;&gt;AppModule -->
<g id="edge3" class="edge">
<title>GroupingModule&#45;&gt;AppModule</title>
<path fill="none" stroke="#000000" d="M313,-122.1061C313,-122.1061 313,-140.991 313,-140.991"/>
<polygon fill="#000000" stroke="#000000" points="309.5001,-140.9909 313,-150.991 316.5001,-140.991 309.5001,-140.9909"/>
</g>
<!-- LayoutModule -->
<g id="node5" class="node">
<title>LayoutModule</title>
<polygon fill="#8dd3c7" stroke="#000000" points="238.7078,-122 235.7078,-126 214.7078,-126 211.7078,-122 139.2922,-122 139.2922,-86 238.7078,-86 238.7078,-122"/>
<text text-anchor="middle" x="189" y="-99.8" font-family="Times,serif" font-size="14.00" fill="#000000">LayoutModule</text>
</g>
<!-- LayoutModule&#45;&gt;AppModule -->
<g id="edge4" class="edge">
<title>LayoutModule&#45;&gt;AppModule</title>
<path fill="none" stroke="#000000" d="M189,-122.0225C189,-139.3734 189,-163 189,-163 189,-163 261.0193,-163 261.0193,-163"/>
<polygon fill="#000000" stroke="#000000" points="261.0193,-166.5001 271.0193,-163 261.0192,-159.5001 261.0193,-166.5001"/>
</g>
<!-- PaletteModule -->
<g id="node6" class="node">
<title>PaletteModule</title>
<polygon fill="#8dd3c7" stroke="#000000" points="121.6486,-122 118.6486,-126 97.6486,-126 94.6486,-122 24.3514,-122 24.3514,-86 121.6486,-86 121.6486,-122"/>
<text text-anchor="middle" x="73" y="-99.8" font-family="Times,serif" font-size="14.00" fill="#000000">PaletteModule</text>
</g>
<!-- PaletteModule&#45;&gt;AppModule -->
<g id="edge5" class="edge">
<title>PaletteModule&#45;&gt;AppModule</title>
<path fill="none" stroke="#000000" d="M73,-122.2843C73,-143.3211 73,-175 73,-175 73,-175 261.1952,-175 261.1952,-175"/>
<polygon fill="#000000" stroke="#000000" points="261.1952,-178.5001 271.1952,-175 261.1952,-171.5001 261.1952,-178.5001"/>
</g>
</g>
</svg>
