<?xml version="1.0" encoding="UTF-8" standalone="no"?>
<!DOCTYPE svg PUBLIC "-//W3C//DTD SVG 1.1//EN"
 "http://www.w3.org/Graphics/SVG/1.1/DTD/svg11.dtd">
<!-- Generated by graphviz version 2.40.1 (20161225.0304)
 -->
<!-- Title: dependencies Pages: 1 -->
<svg width="910pt" height="284pt"
 viewBox="0.00 0.00 910.00 284.00" xmlns="http://www.w3.org/2000/svg" xmlns:xlink="http://www.w3.org/1999/xlink">
<g id="graph0" class="graph" transform="scale(1 1) rotate(0) translate(4 280)">
<title>dependencies</title>
<polygon fill="#ffffff" stroke="transparent" points="-4,4 -4,-280 906,-280 906,4 -4,4"/>
<text text-anchor="start" x="430.0091" y="-42.4" font-family="sans-serif" font-weight="bold" font-size="14.00" fill="#000000">Legend</text>
<polygon fill="#ffffb3" stroke="transparent" points="217,-10 217,-30 237,-30 237,-10 217,-10"/>
<text text-anchor="start" x="240.629" y="-15.4" font-family="sans-serif" font-size="14.00" fill="#000000"> &#160;Declarations</text>
<polygon fill="#8dd3c7" stroke="transparent" points="330,-10 330,-30 350,-30 350,-10 330,-10"/>
<text text-anchor="start" x="353.7251" y="-15.4" font-family="sans-serif" font-size="14.00" fill="#000000"> &#160;Module</text>
<polygon fill="#80b1d3" stroke="transparent" points="416,-10 416,-30 436,-30 436,-10 416,-10"/>
<text text-anchor="start" x="439.7812" y="-15.4" font-family="sans-serif" font-size="14.00" fill="#000000"> &#160;Bootstrap</text>
<polygon fill="#fdb462" stroke="transparent" points="513,-10 513,-30 533,-30 533,-10 513,-10"/>
<text text-anchor="start" x="536.6732" y="-15.4" font-family="sans-serif" font-size="14.00" fill="#000000"> &#160;Providers</text>
<polygon fill="#fb8072" stroke="transparent" points="609,-10 609,-30 629,-30 629,-10 609,-10"/>
<text text-anchor="start" x="632.7258" y="-15.4" font-family="sans-serif" font-size="14.00" fill="#000000"> &#160;Exports</text>
<g id="clust1" class="cluster">
<title>cluster_AppModule</title>
<polygon fill="none" stroke="#000000" stroke-dasharray="1,5" points="8,-70 8,-268 894,-268 894,-70 8,-70"/>
</g>
<g id="clust2" class="cluster">
<title>cluster_AppModule_declarations</title>
<polygon fill="none" stroke="#000000" points="764,-78 764,-130 886,-130 886,-78 764,-78"/>
</g>
<g id="clust4" class="cluster">
<title>cluster_AppModule_imports</title>
<polygon fill="none" stroke="#000000" points="16,-78 16,-130 756,-130 756,-78 16,-78"/>
</g>
<g id="clust6" class="cluster">
<title>cluster_AppModule_bootstrap</title>
<polygon fill="none" stroke="#000000" points="392,-208 392,-260 516,-260 516,-208 392,-208"/>
</g>
<!-- AppComponent -->
<g id="node1" class="node">
<title>AppComponent</title>
<polygon fill="#ffffb3" stroke="#000000" points="877.9399,-122 772.0601,-122 772.0601,-86 877.9399,-86 877.9399,-122"/>
<text text-anchor="middle" x="825" y="-99.8" font-family="Times,serif" font-size="14.00" fill="#000000">AppComponent</text>
</g>
<!-- AppModule -->
<g id="node2" class="node">
<title>AppModule</title>
<polygon fill="#8dd3c7" stroke="#000000" points="495.6571,-187 492.6571,-191 471.6571,-191 468.6571,-187 412.3429,-187 412.3429,-151 495.6571,-151 495.6571,-187"/>
<text text-anchor="middle" x="454" y="-164.8" font-family="Times,serif" font-size="14.00" fill="#000000">AppModule</text>
</g>
<!-- AppComponent&#45;&gt;AppModule -->
<g id="edge1" class="edge">
<title>AppComponent&#45;&gt;AppModule</title>
<path fill="none" stroke="#000000" d="M825,-122.2921C825,-144.2057 825,-178 825,-178 825,-178 505.8372,-178 505.8372,-178"/>
<polygon fill="#000000" stroke="#000000" points="505.8373,-174.5001 495.8372,-178 505.8372,-181.5001 505.8373,-174.5001"/>
</g>
<!-- AppComponent  -->
<g id="node9" class="node">
<title>AppComponent </title>
<polygon fill="#80b1d3" stroke="#000000" points="508.439,-252 399.561,-252 399.561,-216 508.439,-216 508.439,-252"/>
<text text-anchor="middle" x="454" y="-229.8" font-family="Times,serif" font-size="14.00" fill="#000000">AppComponent </text>
</g>
<!-- AppModule&#45;&gt;AppComponent  -->
<g id="edge8" class="edge">
<title>AppModule&#45;&gt;AppComponent </title>
<path fill="none" stroke="#000000" stroke-dasharray="1,5" d="M454,-187.1061C454,-187.1061 454,-205.991 454,-205.991"/>
<polygon fill="#000000" stroke="#000000" points="450.5001,-205.9909 454,-215.991 457.5001,-205.991 450.5001,-205.9909"/>
</g>
<!-- GroupModule -->
<g id="node3" class="node">
<title>GroupModule</title>
<polygon fill="#8dd3c7" stroke="#000000" points="747.8175,-122 744.8175,-126 723.8175,-126 720.8175,-122 652.1825,-122 652.1825,-86 747.8175,-86 747.8175,-122"/>
<text text-anchor="middle" x="700" y="-99.8" font-family="Times,serif" font-size="14.00" fill="#000000">GroupModule</text>
</g>
<!-- GroupModule&#45;&gt;AppModule -->
<g id="edge2" class="edge">
<title>GroupModule&#45;&gt;AppModule</title>
<path fill="none" stroke="#000000" d="M700,-122.1061C700,-141.3391 700,-169 700,-169 700,-169 505.7305,-169 505.7305,-169"/>
<polygon fill="#000000" stroke="#000000" points="505.7306,-165.5001 495.7305,-169 505.7305,-172.5001 505.7306,-165.5001"/>
</g>
<!-- GroupingModule -->
<g id="node4" class="node">
<title>GroupingModule</title>
<polygon fill="#8dd3c7" stroke="#000000" points="634.7078,-122 631.7078,-126 610.7078,-126 607.7078,-122 521.2922,-122 521.2922,-86 634.7078,-86 634.7078,-122"/>
<text text-anchor="middle" x="578" y="-99.8" font-family="Times,serif" font-size="14.00" fill="#000000">GroupingModule</text>
</g>
<!-- GroupingModule&#45;&gt;AppModule -->
<g id="edge3" class="edge">
<title>GroupingModule&#45;&gt;AppModule</title>
<path fill="none" stroke="#000000" d="M578,-122.027C578,-138.3976 578,-160 578,-160 578,-160 505.9807,-160 505.9807,-160"/>
<polygon fill="#000000" stroke="#000000" points="505.9808,-156.5001 495.9807,-160 505.9807,-163.5001 505.9808,-156.5001"/>
</g>
<!-- LayoutModule -->
<g id="node5" class="node">
<title>LayoutModule</title>
<polygon fill="#8dd3c7" stroke="#000000" points="503.7078,-122 500.7078,-126 479.7078,-126 476.7078,-122 404.2922,-122 404.2922,-86 503.7078,-86 503.7078,-122"/>
<text text-anchor="middle" x="454" y="-99.8" font-family="Times,serif" font-size="14.00" fill="#000000">LayoutModule</text>
</g>
<!-- LayoutModule&#45;&gt;AppModule -->
<g id="edge4" class="edge">
<title>LayoutModule&#45;&gt;AppModule</title>
<path fill="none" stroke="#000000" d="M454,-122.1061C454,-122.1061 454,-140.991 454,-140.991"/>
<polygon fill="#000000" stroke="#000000" points="450.5001,-140.9909 454,-150.991 457.5001,-140.991 450.5001,-140.9909"/>
</g>
<!-- PaletteModule -->
<g id="node6" class="node">
<title>PaletteModule</title>
<polygon fill="#8dd3c7" stroke="#000000" points="386.6486,-122 383.6486,-126 362.6486,-126 359.6486,-122 289.3514,-122 289.3514,-86 386.6486,-86 386.6486,-122"/>
<text text-anchor="middle" x="338" y="-99.8" font-family="Times,serif" font-size="14.00" fill="#000000">PaletteModule</text>
</g>
<!-- PaletteModule&#45;&gt;AppModule -->
<g id="edge5" class="edge">
<title>PaletteModule&#45;&gt;AppModule</title>
<path fill="none" stroke="#000000" d="M338,-122.027C338,-138.3976 338,-160 338,-160 338,-160 402.1213,-160 402.1213,-160"/>
<polygon fill="#000000" stroke="#000000" points="402.1214,-163.5001 412.1213,-160 402.1213,-156.5001 402.1214,-163.5001"/>
</g>
<!-- PivotpanelModule -->
<g id="node7" class="node">
<title>PivotpanelModule</title>
<polygon fill="#8dd3c7" stroke="#000000" points="270.9342,-122 267.9342,-126 246.9342,-126 243.9342,-122 151.0658,-122 151.0658,-86 270.9342,-86 270.9342,-122"/>
<text text-anchor="middle" x="211" y="-99.8" font-family="Times,serif" font-size="14.00" fill="#000000">PivotpanelModule</text>
</g>
<!-- PivotpanelModule&#45;&gt;AppModule -->
<g id="edge6" class="edge">
<title>PivotpanelModule&#45;&gt;AppModule</title>
<path fill="none" stroke="#000000" d="M211,-122.1061C211,-141.3391 211,-169 211,-169 211,-169 402.2268,-169 402.2268,-169"/>
<polygon fill="#000000" stroke="#000000" points="402.2268,-172.5001 412.2268,-169 402.2268,-165.5001 402.2268,-172.5001"/>
</g>
<!-- PlanningModule -->
<g id="node8" class="node">
<title>PlanningModule</title>
<polygon fill="#8dd3c7" stroke="#000000" points="133.8287,-122 130.8287,-126 109.8287,-126 106.8287,-122 24.1713,-122 24.1713,-86 133.8287,-86 133.8287,-122"/>
<text text-anchor="middle" x="79" y="-99.8" font-family="Times,serif" font-size="14.00" fill="#000000">PlanningModule</text>
</g>
<!-- PlanningModule&#45;&gt;AppModule -->
<g id="edge7" class="edge">
<title>PlanningModule&#45;&gt;AppModule</title>
<path fill="none" stroke="#000000" d="M79,-122.2921C79,-144.2057 79,-178 79,-178 79,-178 402.0743,-178 402.0743,-178"/>
<polygon fill="#000000" stroke="#000000" points="402.0743,-181.5001 412.0743,-178 402.0743,-174.5001 402.0743,-181.5001"/>
</g>
</g>
</svg>
