<?xml version="1.0" encoding="UTF-8" standalone="no"?>
<!DOCTYPE svg PUBLIC "-//W3C//DTD SVG 1.1//EN"
 "http://www.w3.org/Graphics/SVG/1.1/DTD/svg11.dtd">
<!-- Generated by graphviz version 2.40.1 (20161225.0304)
 -->
<!-- Title: dependencies Pages: 1 -->
<svg width="626pt" height="284pt"
 viewBox="0.00 0.00 626.00 284.00" xmlns="http://www.w3.org/2000/svg" xmlns:xlink="http://www.w3.org/1999/xlink">
<g id="graph0" class="graph" transform="scale(1 1) rotate(0) translate(4 280)">
<title>dependencies</title>
<polygon fill="#ffffff" stroke="transparent" points="-4,4 -4,-280 622,-280 622,4 -4,4"/>
<text text-anchor="start" x="288.0091" y="-42.4" font-family="sans-serif" font-weight="bold" font-size="14.00" fill="#000000">Legend</text>
<polygon fill="#ffffb3" stroke="transparent" points="75,-10 75,-30 95,-30 95,-10 75,-10"/>
<text text-anchor="start" x="98.629" y="-15.4" font-family="sans-serif" font-size="14.00" fill="#000000"> &#160;Declarations</text>
<polygon fill="#8dd3c7" stroke="transparent" points="188,-10 188,-30 208,-30 208,-10 188,-10"/>
<text text-anchor="start" x="211.7251" y="-15.4" font-family="sans-serif" font-size="14.00" fill="#000000"> &#160;Module</text>
<polygon fill="#80b1d3" stroke="transparent" points="274,-10 274,-30 294,-30 294,-10 274,-10"/>
<text text-anchor="start" x="297.7812" y="-15.4" font-family="sans-serif" font-size="14.00" fill="#000000"> &#160;Bootstrap</text>
<polygon fill="#fdb462" stroke="transparent" points="371,-10 371,-30 391,-30 391,-10 371,-10"/>
<text text-anchor="start" x="394.6732" y="-15.4" font-family="sans-serif" font-size="14.00" fill="#000000"> &#160;Providers</text>
<polygon fill="#fb8072" stroke="transparent" points="467,-10 467,-30 487,-30 487,-10 467,-10"/>
<text text-anchor="start" x="490.7258" y="-15.4" font-family="sans-serif" font-size="14.00" fill="#000000"> &#160;Exports</text>
<g id="clust1" class="cluster">
<title>cluster_LayoutModule</title>
<polygon fill="none" stroke="#000000" stroke-dasharray="1,5" points="8,-70 8,-268 610,-268 610,-70 8,-70"/>
</g>
<g id="clust2" class="cluster">
<title>cluster_LayoutModule_declarations</title>
<polygon fill="none" stroke="#000000" points="466,-78 466,-130 602,-130 602,-78 466,-78"/>
</g>
<g id="clust4" class="cluster">
<title>cluster_LayoutModule_imports</title>
<polygon fill="none" stroke="#000000" points="204,-78 204,-130 458,-130 458,-78 204,-78"/>
</g>
<g id="clust5" class="cluster">
<title>cluster_LayoutModule_exports</title>
<polygon fill="none" stroke="#000000" points="266,-208 266,-260 406,-260 406,-208 266,-208"/>
</g>
<g id="clust7" class="cluster">
<title>cluster_LayoutModule_providers</title>
<polygon fill="none" stroke="#000000" points="16,-78 16,-130 196,-130 196,-78 16,-78"/>
</g>
<!-- LayoutComponent -->
<g id="node1" class="node">
<title>LayoutComponent</title>
<polygon fill="#ffffb3" stroke="#000000" points="594.4902,-122 473.5098,-122 473.5098,-86 594.4902,-86 594.4902,-122"/>
<text text-anchor="middle" x="534" y="-99.8" font-family="Times,serif" font-size="14.00" fill="#000000">LayoutComponent</text>
</g>
<!-- LayoutModule -->
<g id="node2" class="node">
<title>LayoutModule</title>
<polygon fill="#8dd3c7" stroke="#000000" points="385.7078,-187 382.7078,-191 361.7078,-191 358.7078,-187 286.2922,-187 286.2922,-151 385.7078,-151 385.7078,-187"/>
<text text-anchor="middle" x="336" y="-164.8" font-family="Times,serif" font-size="14.00" fill="#000000">LayoutModule</text>
</g>
<!-- LayoutComponent&#45;&gt;LayoutModule -->
<g id="edge1" class="edge">
<title>LayoutComponent&#45;&gt;LayoutModule</title>
<path fill="none" stroke="#000000" d="M534,-122.1061C534,-141.3391 534,-169 534,-169 534,-169 395.7082,-169 395.7082,-169"/>
<polygon fill="#000000" stroke="#000000" points="395.7082,-165.5001 385.7082,-169 395.7082,-172.5001 395.7082,-165.5001"/>
</g>
<!-- LayoutComponent  -->
<g id="node5" class="node">
<title>LayoutComponent </title>
<polygon fill="#fb8072" stroke="#000000" points="398.4912,-252 273.5088,-252 273.5088,-216 398.4912,-216 398.4912,-252"/>
<text text-anchor="middle" x="336" y="-229.8" font-family="Times,serif" font-size="14.00" fill="#000000">LayoutComponent </text>
</g>
<!-- LayoutModule&#45;&gt;LayoutComponent  -->
<g id="edge4" class="edge">
<title>LayoutModule&#45;&gt;LayoutComponent </title>
<path fill="none" stroke="#000000" stroke-dasharray="5,2" d="M336,-187.1061C336,-187.1061 336,-205.991 336,-205.991"/>
<polygon fill="#000000" stroke="#000000" points="332.5001,-205.9909 336,-215.991 339.5001,-205.991 332.5001,-205.9909"/>
</g>
<!-- RibbonModule -->
<g id="node3" class="node">
<title>RibbonModule</title>
<polygon fill="#8dd3c7" stroke="#000000" points="450.2772,-122 447.2772,-126 426.2772,-126 423.2772,-122 349.7228,-122 349.7228,-86 450.2772,-86 450.2772,-122"/>
<text text-anchor="middle" x="400" y="-99.8" font-family="Times,serif" font-size="14.00" fill="#000000">RibbonModule</text>
</g>
<!-- RibbonModule&#45;&gt;LayoutModule -->
<g id="edge2" class="edge">
<title>RibbonModule&#45;&gt;LayoutModule</title>
<path fill="none" stroke="#000000" d="M367.6077,-122.1061C367.6077,-122.1061 367.6077,-140.991 367.6077,-140.991"/>
<polygon fill="#000000" stroke="#000000" points="364.1077,-140.9909 367.6077,-150.991 371.1077,-140.991 364.1077,-140.9909"/>
</g>
<!-- WorksheetModule -->
<g id="node4" class="node">
<title>WorksheetModule</title>
<polygon fill="#8dd3c7" stroke="#000000" points="332.1895,-122 329.1895,-126 308.1895,-126 305.1895,-122 211.8105,-122 211.8105,-86 332.1895,-86 332.1895,-122"/>
<text text-anchor="middle" x="272" y="-99.8" font-family="Times,serif" font-size="14.00" fill="#000000">WorksheetModule</text>
</g>
<!-- WorksheetModule&#45;&gt;LayoutModule -->
<g id="edge3" class="edge">
<title>WorksheetModule&#45;&gt;LayoutModule</title>
<path fill="none" stroke="#000000" d="M309.2455,-122.1061C309.2455,-122.1061 309.2455,-140.991 309.2455,-140.991"/>
<polygon fill="#000000" stroke="#000000" points="305.7455,-140.9909 309.2455,-150.991 312.7455,-140.991 305.7455,-140.9909"/>
</g>
<!-- WorksheetService -->
<g id="node6" class="node">
<title>WorksheetService</title>
<ellipse fill="#fdb462" stroke="#000000" cx="106" cy="-104" rx="81.6404" ry="18"/>
<text text-anchor="middle" x="106" y="-99.8" font-family="Times,serif" font-size="14.00" fill="#000000">WorksheetService</text>
</g>
<!-- WorksheetService&#45;&gt;LayoutModule -->
<g id="edge5" class="edge">
<title>WorksheetService&#45;&gt;LayoutModule</title>
<path fill="none" stroke="#000000" d="M106,-122.1061C106,-141.3391 106,-169 106,-169 106,-169 276.3766,-169 276.3766,-169"/>
<polygon fill="#000000" stroke="#000000" points="276.3766,-172.5001 286.3766,-169 276.3766,-165.5001 276.3766,-172.5001"/>
</g>
</g>
</svg>
