<?xml version="1.0" encoding="UTF-8" standalone="no"?>
<!DOCTYPE svg PUBLIC "-//W3C//DTD SVG 1.1//EN"
 "http://www.w3.org/Graphics/SVG/1.1/DTD/svg11.dtd">
<!-- Generated by graphviz version 2.40.1 (20161225.0304)
 -->
<!-- Title: dependencies Pages: 1 -->
<svg width="1775pt" height="436pt"
 viewBox="0.00 0.00 1775.00 436.00" xmlns="http://www.w3.org/2000/svg" xmlns:xlink="http://www.w3.org/1999/xlink">
<g id="graph0" class="graph" transform="scale(1 1) rotate(0) translate(4 432)">
<title>dependencies</title>
<polygon fill="#ffffff" stroke="transparent" points="-4,4 -4,-432 1771,-432 1771,4 -4,4"/>
<text text-anchor="start" x="862.5091" y="-42.4" font-family="sans-serif" font-weight="bold" font-size="14.00" fill="#000000">Legend</text>
<polygon fill="#ffffb3" stroke="transparent" points="649.5,-10 649.5,-30 669.5,-30 669.5,-10 649.5,-10"/>
<text text-anchor="start" x="673.129" y="-15.4" font-family="sans-serif" font-size="14.00" fill="#000000"> &#160;Declarations</text>
<polygon fill="#8dd3c7" stroke="transparent" points="762.5,-10 762.5,-30 782.5,-30 782.5,-10 762.5,-10"/>
<text text-anchor="start" x="786.2251" y="-15.4" font-family="sans-serif" font-size="14.00" fill="#000000"> &#160;Module</text>
<polygon fill="#80b1d3" stroke="transparent" points="848.5,-10 848.5,-30 868.5,-30 868.5,-10 848.5,-10"/>
<text text-anchor="start" x="872.2812" y="-15.4" font-family="sans-serif" font-size="14.00" fill="#000000"> &#160;Bootstrap</text>
<polygon fill="#fdb462" stroke="transparent" points="945.5,-10 945.5,-30 965.5,-30 965.5,-10 945.5,-10"/>
<text text-anchor="start" x="969.1732" y="-15.4" font-family="sans-serif" font-size="14.00" fill="#000000"> &#160;Providers</text>
<polygon fill="#fb8072" stroke="transparent" points="1041.5,-10 1041.5,-30 1061.5,-30 1061.5,-10 1041.5,-10"/>
<text text-anchor="start" x="1065.2258" y="-15.4" font-family="sans-serif" font-size="14.00" fill="#000000"> &#160;Exports</text>
<g id="clust1" class="cluster">
<title>cluster_AppModule</title>
<polygon fill="none" stroke="#000000" stroke-dasharray="1,5" points="532,-222 532,-420 1153,-420 1153,-222 532,-222"/>
</g>
<g id="clust2" class="cluster">
<title>cluster_AppModule_declarations</title>
<polygon fill="none" stroke="#000000" points="1023,-230 1023,-282 1145,-282 1145,-230 1023,-230"/>
</g>
<g id="clust4" class="cluster">
<title>cluster_AppModule_imports</title>
<polygon fill="none" stroke="#000000" points="540,-230 540,-282 1015,-282 1015,-230 540,-230"/>
</g>
<g id="clust6" class="cluster">
<title>cluster_AppModule_bootstrap</title>
<polygon fill="none" stroke="#000000" points="780,-360 780,-412 904,-412 904,-360 780,-360"/>
</g>
<g id="clust8" class="cluster">
<title>cluster_GroupingModule</title>
<polygon fill="none" stroke="#000000" stroke-dasharray="1,5" points="8,-146 8,-214 476,-214 476,-146 8,-146"/>
</g>
<g id="clust9" class="cluster">
<title>cluster_GroupingModule_declarations</title>
<polygon fill="none" stroke="#000000" points="318,-154 318,-206 468,-206 468,-154 318,-154"/>
</g>
<g id="clust13" class="cluster">
<title>cluster_GroupingModule_bootstrap</title>
<polygon fill="none" stroke="#000000" points="156,-154 156,-206 310,-206 310,-154 156,-154"/>
</g>
<g id="clust14" class="cluster">
<title>cluster_GroupingModule_providers</title>
<polygon fill="none" stroke="#000000" points="16,-154 16,-206 148,-206 148,-154 16,-154"/>
</g>
<g id="clust15" class="cluster">
<title>cluster_GroupModule</title>
<polygon fill="none" stroke="#000000" stroke-dasharray="1,5" points="790,-146 790,-214 940,-214 940,-146 790,-146"/>
</g>
<g id="clust16" class="cluster">
<title>cluster_GroupModule_declarations</title>
<polygon fill="none" stroke="#000000" points="798,-154 798,-206 932,-206 932,-154 798,-154"/>
</g>
<g id="clust22" class="cluster">
<title>cluster_LayoutModule</title>
<polygon fill="none" stroke="#000000" stroke-dasharray="1,5" points="948,-146 948,-214 1698,-214 1698,-146 948,-146"/>
</g>
<g id="clust23" class="cluster">
<title>cluster_LayoutModule_declarations</title>
<polygon fill="none" stroke="#000000" points="1292,-154 1292,-206 1428,-206 1428,-154 1292,-154"/>
</g>
<g id="clust25" class="cluster">
<title>cluster_LayoutModule_imports</title>
<polygon fill="none" stroke="#000000" points="1436,-154 1436,-206 1690,-206 1690,-154 1436,-154"/>
</g>
<g id="clust26" class="cluster">
<title>cluster_LayoutModule_exports</title>
<polygon fill="none" stroke="#000000" points="956,-154 956,-206 1096,-206 1096,-154 956,-154"/>
</g>
<g id="clust28" class="cluster">
<title>cluster_LayoutModule_providers</title>
<polygon fill="none" stroke="#000000" points="1104,-154 1104,-206 1284,-206 1284,-154 1104,-154"/>
</g>
<g id="clust29" class="cluster">
<title>cluster_PaletteModule</title>
<polygon fill="none" stroke="#000000" stroke-dasharray="1,5" points="484,-146 484,-214 782,-214 782,-146 484,-146"/>
</g>
<g id="clust30" class="cluster">
<title>cluster_PaletteModule_declarations</title>
<polygon fill="none" stroke="#000000" points="638,-154 638,-206 774,-206 774,-154 638,-154"/>
</g>
<g id="clust33" class="cluster">
<title>cluster_PaletteModule_exports</title>
<polygon fill="none" stroke="#000000" points="492,-154 492,-206 630,-206 630,-154 492,-154"/>
</g>
<g id="clust36" class="cluster">
<title>cluster_RibbonModule</title>
<polygon fill="none" stroke="#000000" stroke-dasharray="1,5" points="1430,-222 1430,-290 1734,-290 1734,-222 1430,-222"/>
</g>
<g id="clust37" class="cluster">
<title>cluster_RibbonModule_declarations</title>
<polygon fill="none" stroke="#000000" points="1588,-230 1588,-282 1726,-282 1726,-230 1588,-230"/>
</g>
<g id="clust40" class="cluster">
<title>cluster_RibbonModule_exports</title>
<polygon fill="none" stroke="#000000" points="1438,-230 1438,-282 1580,-282 1580,-230 1438,-230"/>
</g>
<g id="clust43" class="cluster">
<title>cluster_WorksheetModule</title>
<polygon fill="none" stroke="#000000" stroke-dasharray="1,5" points="1247,-70 1247,-138 1759,-138 1759,-70 1247,-70"/>
</g>
<g id="clust44" class="cluster">
<title>cluster_WorksheetModule_declarations</title>
<polygon fill="none" stroke="#000000" points="1593,-78 1593,-130 1751,-130 1751,-78 1593,-78"/>
</g>
<g id="clust47" class="cluster">
<title>cluster_WorksheetModule_exports</title>
<polygon fill="none" stroke="#000000" points="1423,-78 1423,-130 1585,-130 1585,-78 1423,-78"/>
</g>
<g id="clust49" class="cluster">
<title>cluster_WorksheetModule_providers</title>
<polygon fill="none" stroke="#000000" points="1255,-78 1255,-130 1415,-130 1415,-78 1255,-78"/>
</g>
<!-- AppComponent -->
<g id="node1" class="node">
<title>AppComponent</title>
<polygon fill="#ffffb3" stroke="#000000" points="1136.9399,-274 1031.0601,-274 1031.0601,-238 1136.9399,-238 1136.9399,-274"/>
<text text-anchor="middle" x="1084" y="-251.8" font-family="Times,serif" font-size="14.00" fill="#000000">AppComponent</text>
</g>
<!-- AppModule -->
<g id="node2" class="node">
<title>AppModule</title>
<polygon fill="#8dd3c7" stroke="#000000" points="883.6571,-339 880.6571,-343 859.6571,-343 856.6571,-339 800.3429,-339 800.3429,-303 883.6571,-303 883.6571,-339"/>
<text text-anchor="middle" x="842" y="-316.8" font-family="Times,serif" font-size="14.00" fill="#000000">AppModule</text>
</g>
<!-- AppComponent&#45;&gt;AppModule -->
<g id="edge1" class="edge">
<title>AppComponent&#45;&gt;AppModule</title>
<path fill="none" stroke="#000000" d="M1084,-274.2843C1084,-295.3211 1084,-327 1084,-327 1084,-327 893.8769,-327 893.8769,-327"/>
<polygon fill="#000000" stroke="#000000" points="893.8769,-323.5001 883.8769,-327 893.8769,-330.5001 893.8769,-323.5001"/>
</g>
<!-- AppComponent  -->
<g id="node7" class="node">
<title>AppComponent </title>
<polygon fill="#80b1d3" stroke="#000000" points="896.439,-404 787.561,-404 787.561,-368 896.439,-368 896.439,-404"/>
<text text-anchor="middle" x="842" y="-381.8" font-family="Times,serif" font-size="14.00" fill="#000000">AppComponent </text>
</g>
<!-- AppModule&#45;&gt;AppComponent  -->
<g id="edge6" class="edge">
<title>AppModule&#45;&gt;AppComponent </title>
<path fill="none" stroke="#000000" stroke-dasharray="1,5" d="M842,-339.1061C842,-339.1061 842,-357.991 842,-357.991"/>
<polygon fill="#000000" stroke="#000000" points="838.5001,-357.9909 842,-367.991 845.5001,-357.991 838.5001,-357.9909"/>
</g>
<!-- GroupModule -->
<g id="node3" class="node">
<title>GroupModule</title>
<polygon fill="#8dd3c7" stroke="#000000" points="889.8175,-274 886.8175,-278 865.8175,-278 862.8175,-274 794.1825,-274 794.1825,-238 889.8175,-238 889.8175,-274"/>
<text text-anchor="middle" x="842" y="-251.8" font-family="Times,serif" font-size="14.00" fill="#000000">GroupModule</text>
</g>
<!-- GroupModule&#45;&gt;AppModule -->
<g id="edge2" class="edge">
<title>GroupModule&#45;&gt;AppModule</title>
<path fill="none" stroke="#000000" d="M842,-274.1061C842,-274.1061 842,-292.991 842,-292.991"/>
<polygon fill="#000000" stroke="#000000" points="838.5001,-292.9909 842,-302.991 845.5001,-292.991 838.5001,-292.9909"/>
</g>
<!-- GroupingModule -->
<g id="node4" class="node">
<title>GroupingModule</title>
<polygon fill="#8dd3c7" stroke="#000000" points="661.7078,-274 658.7078,-278 637.7078,-278 634.7078,-274 548.2922,-274 548.2922,-238 661.7078,-238 661.7078,-274"/>
<text text-anchor="middle" x="605" y="-251.8" font-family="Times,serif" font-size="14.00" fill="#000000">GroupingModule</text>
</g>
<!-- GroupingModule&#45;&gt;AppModule -->
<g id="edge3" class="edge">
<title>GroupingModule&#45;&gt;AppModule</title>
<path fill="none" stroke="#000000" d="M605,-274.2843C605,-295.3211 605,-327 605,-327 605,-327 790.1747,-327 790.1747,-327"/>
<polygon fill="#000000" stroke="#000000" points="790.1747,-330.5001 800.1747,-327 790.1747,-323.5001 790.1747,-330.5001"/>
</g>
<!-- GroupingComponent  -->
<g id="node9" class="node">
<title>GroupingComponent </title>
<polygon fill="#80b1d3" stroke="#000000" points="302.4911,-198 163.5089,-198 163.5089,-162 302.4911,-162 302.4911,-198"/>
<text text-anchor="middle" x="233" y="-175.8" font-family="Times,serif" font-size="14.00" fill="#000000">GroupingComponent </text>
</g>
<!-- GroupingModule&#45;&gt;GroupingComponent  -->
<g id="edge8" class="edge">
<title>GroupingModule&#45;&gt;GroupingComponent </title>
<path fill="none" stroke="#000000" stroke-dasharray="1,5" d="M548.0963,-256C443.888,-256 233,-256 233,-256 233,-256 233,-208.0109 233,-208.0109"/>
<polygon fill="#000000" stroke="#000000" points="236.5001,-208.0109 233,-198.0109 229.5001,-208.011 236.5001,-208.0109"/>
</g>
<!-- LayoutModule -->
<g id="node5" class="node">
<title>LayoutModule</title>
<polygon fill="#8dd3c7" stroke="#000000" points="1006.7078,-274 1003.7078,-278 982.7078,-278 979.7078,-274 907.2922,-274 907.2922,-238 1006.7078,-238 1006.7078,-274"/>
<text text-anchor="middle" x="957" y="-251.8" font-family="Times,serif" font-size="14.00" fill="#000000">LayoutModule</text>
</g>
<!-- LayoutModule&#45;&gt;AppModule -->
<g id="edge4" class="edge">
<title>LayoutModule&#45;&gt;AppModule</title>
<path fill="none" stroke="#000000" d="M957,-274.0225C957,-291.3734 957,-315 957,-315 957,-315 893.843,-315 893.843,-315"/>
<polygon fill="#000000" stroke="#000000" points="893.843,-311.5001 883.843,-315 893.8429,-318.5001 893.843,-311.5001"/>
</g>
<!-- LayoutComponent  -->
<g id="node15" class="node">
<title>LayoutComponent </title>
<polygon fill="#fb8072" stroke="#000000" points="1088.4912,-198 963.5088,-198 963.5088,-162 1088.4912,-162 1088.4912,-198"/>
<text text-anchor="middle" x="1026" y="-175.8" font-family="Times,serif" font-size="14.00" fill="#000000">LayoutComponent </text>
</g>
<!-- LayoutModule&#45;&gt;LayoutComponent  -->
<g id="edge14" class="edge">
<title>LayoutModule&#45;&gt;LayoutComponent </title>
<path fill="none" stroke="#000000" stroke-dasharray="5,2" d="M970.8964,-237.9891C970.8964,-237.9891 970.8964,-208.145 970.8964,-208.145"/>
<polygon fill="#000000" stroke="#000000" points="974.3965,-208.145 970.8964,-198.145 967.3965,-208.1451 974.3965,-208.145"/>
</g>
<!-- PaletteModule -->
<g id="node6" class="node">
<title>PaletteModule</title>
<polygon fill="#8dd3c7" stroke="#000000" points="776.6486,-274 773.6486,-278 752.6486,-278 749.6486,-274 679.3514,-274 679.3514,-238 776.6486,-238 776.6486,-274"/>
<text text-anchor="middle" x="728" y="-251.8" font-family="Times,serif" font-size="14.00" fill="#000000">PaletteModule</text>
</g>
<!-- PaletteModule&#45;&gt;AppModule -->
<g id="edge5" class="edge">
<title>PaletteModule&#45;&gt;AppModule</title>
<path fill="none" stroke="#000000" d="M728,-274.0225C728,-291.3734 728,-315 728,-315 728,-315 790.1979,-315 790.1979,-315"/>
<polygon fill="#000000" stroke="#000000" points="790.198,-318.5001 800.1979,-315 790.1979,-311.5001 790.198,-318.5001"/>
</g>
<!-- PaletteComponent  -->
<g id="node18" class="node">
<title>PaletteComponent </title>
<polygon fill="#fb8072" stroke="#000000" points="622.4306,-198 499.5694,-198 499.5694,-162 622.4306,-162 622.4306,-198"/>
<text text-anchor="middle" x="561" y="-175.8" font-family="Times,serif" font-size="14.00" fill="#000000">PaletteComponent </text>
</g>
<!-- PaletteModule&#45;&gt;PaletteComponent  -->
<g id="edge17" class="edge">
<title>PaletteModule&#45;&gt;PaletteComponent </title>
<path fill="none" stroke="#000000" stroke-dasharray="5,2" d="M700.8108,-237.8097C700.8108,-234.4624 700.8108,-232 700.8108,-232 700.8108,-232 585.4308,-232 585.4308,-232 585.4308,-232 585.4308,-208.1871 585.4308,-208.1871"/>
<polygon fill="#000000" stroke="#000000" points="588.9308,-208.187 585.4308,-198.1871 581.9308,-208.1871 588.9308,-208.187"/>
</g>
<!-- GroupingComponent -->
<g id="node8" class="node">
<title>GroupingComponent</title>
<polygon fill="#ffffb3" stroke="#000000" points="460.4902,-198 325.5098,-198 325.5098,-162 460.4902,-162 460.4902,-198"/>
<text text-anchor="middle" x="393" y="-175.8" font-family="Times,serif" font-size="14.00" fill="#000000">GroupingComponent</text>
</g>
<!-- GroupingComponent&#45;&gt;GroupingModule -->
<g id="edge7" class="edge">
<title>GroupingComponent&#45;&gt;GroupingModule</title>
<path fill="none" stroke="#000000" d="M393,-198.308C393,-218.1455 393,-247 393,-247 393,-247 538.1879,-247 538.1879,-247"/>
<polygon fill="#000000" stroke="#000000" points="538.1879,-250.5001 548.1879,-247 538.1879,-243.5001 538.1879,-250.5001"/>
</g>
<!-- DataService -->
<g id="node10" class="node">
<title>DataService</title>
<ellipse fill="#fdb462" stroke="#000000" cx="82" cy="-180" rx="58.4415" ry="18"/>
<text text-anchor="middle" x="82" y="-175.8" font-family="Times,serif" font-size="14.00" fill="#000000">DataService</text>
</g>
<!-- DataService&#45;&gt;GroupingModule -->
<g id="edge9" class="edge">
<title>DataService&#45;&gt;GroupingModule</title>
<path fill="none" stroke="#000000" d="M82,-198.0263C82,-222.9773 82,-265 82,-265 82,-265 538.0342,-265 538.0342,-265"/>
<polygon fill="#000000" stroke="#000000" points="538.0343,-268.5001 548.0342,-265 538.0342,-261.5001 538.0343,-268.5001"/>
</g>
<!-- GroupComponent -->
<g id="node11" class="node">
<title>GroupComponent</title>
<polygon fill="#ffffb3" stroke="#000000" points="923.5996,-198 806.4004,-198 806.4004,-162 923.5996,-162 923.5996,-198"/>
<text text-anchor="middle" x="865" y="-175.8" font-family="Times,serif" font-size="14.00" fill="#000000">GroupComponent</text>
</g>
<!-- GroupComponent&#45;&gt;GroupModule -->
<g id="edge10" class="edge">
<title>GroupComponent&#45;&gt;GroupModule</title>
<path fill="none" stroke="#000000" d="M848.0544,-198.0109C848.0544,-198.0109 848.0544,-227.855 848.0544,-227.855"/>
<polygon fill="#000000" stroke="#000000" points="844.5544,-227.8549 848.0544,-237.855 851.5544,-227.855 844.5544,-227.8549"/>
</g>
<!-- LayoutComponent -->
<g id="node12" class="node">
<title>LayoutComponent</title>
<polygon fill="#ffffb3" stroke="#000000" points="1420.4902,-198 1299.5098,-198 1299.5098,-162 1420.4902,-162 1420.4902,-198"/>
<text text-anchor="middle" x="1360" y="-175.8" font-family="Times,serif" font-size="14.00" fill="#000000">LayoutComponent</text>
</g>
<!-- LayoutComponent&#45;&gt;LayoutModule -->
<g id="edge11" class="edge">
<title>LayoutComponent&#45;&gt;LayoutModule</title>
<path fill="none" stroke="#000000" d="M1360,-198.2434C1360,-205.4297 1360,-212 1360,-212 1360,-212 985.1794,-212 985.1794,-212 985.1794,-212 985.1794,-227.8495 985.1794,-227.8495"/>
<polygon fill="#000000" stroke="#000000" points="981.6794,-227.8494 985.1794,-237.8495 988.6794,-227.8495 981.6794,-227.8494"/>
</g>
<!-- RibbonModule -->
<g id="node13" class="node">
<title>RibbonModule</title>
<polygon fill="#8dd3c7" stroke="#000000" points="1682.2772,-198 1679.2772,-202 1658.2772,-202 1655.2772,-198 1581.7228,-198 1581.7228,-162 1682.2772,-162 1682.2772,-198"/>
<text text-anchor="middle" x="1632" y="-175.8" font-family="Times,serif" font-size="14.00" fill="#000000">RibbonModule</text>
</g>
<!-- RibbonModule&#45;&gt;LayoutModule -->
<g id="edge12" class="edge">
<title>RibbonModule&#45;&gt;LayoutModule</title>
<path fill="none" stroke="#000000" d="M1588.6658,-198.0439C1588.6658,-210.5633 1588.6658,-225 1588.6658,-225 1588.6658,-225 999.4623,-225 999.4623,-225 999.4623,-225 999.4623,-227.9672 999.4623,-227.9672"/>
<polygon fill="#000000" stroke="#000000" points="995.9624,-227.9671 999.4623,-237.9672 1002.9624,-227.9672 995.9624,-227.9671"/>
</g>
<!-- RibbonComponent  -->
<g id="node20" class="node">
<title>RibbonComponent </title>
<polygon fill="#fb8072" stroke="#000000" points="1572.0596,-274 1445.9404,-274 1445.9404,-238 1572.0596,-238 1572.0596,-274"/>
<text text-anchor="middle" x="1509" y="-251.8" font-family="Times,serif" font-size="14.00" fill="#000000">RibbonComponent </text>
</g>
<!-- RibbonModule&#45;&gt;RibbonComponent  -->
<g id="edge20" class="edge">
<title>RibbonModule&#45;&gt;RibbonComponent </title>
<path fill="none" stroke="#000000" stroke-dasharray="5,2" d="M1581.6218,-180C1573.6974,-180 1568.0623,-180 1568.0623,-180 1568.0623,-180 1568.0623,-227.9891 1568.0623,-227.9891"/>
<polygon fill="#000000" stroke="#000000" points="1564.5623,-227.989 1568.0623,-237.9891 1571.5623,-227.9891 1564.5623,-227.989"/>
</g>
<!-- WorksheetModule -->
<g id="node14" class="node">
<title>WorksheetModule</title>
<polygon fill="#8dd3c7" stroke="#000000" points="1564.1895,-198 1561.1895,-202 1540.1895,-202 1537.1895,-198 1443.8105,-198 1443.8105,-162 1564.1895,-162 1564.1895,-198"/>
<text text-anchor="middle" x="1504" y="-175.8" font-family="Times,serif" font-size="14.00" fill="#000000">WorksheetModule</text>
</g>
<!-- WorksheetModule&#45;&gt;LayoutModule -->
<g id="edge13" class="edge">
<title>WorksheetModule&#45;&gt;LayoutModule</title>
<path fill="none" stroke="#000000" d="M1505.0325,-198.1097C1505.0325,-207.897 1505.0325,-218 1505.0325,-218 1505.0325,-218 992.3208,-218 992.3208,-218 992.3208,-218 992.3208,-227.8903 992.3208,-227.8903"/>
<polygon fill="#000000" stroke="#000000" points="988.8209,-227.8903 992.3208,-237.8903 995.8209,-227.8904 988.8209,-227.8903"/>
</g>
<!-- WorksheetComponent  -->
<g id="node22" class="node">
<title>WorksheetComponent </title>
<polygon fill="#fb8072" stroke="#000000" points="1576.9728,-122 1431.0272,-122 1431.0272,-86 1576.9728,-86 1576.9728,-122"/>
<text text-anchor="middle" x="1504" y="-99.8" font-family="Times,serif" font-size="14.00" fill="#000000">WorksheetComponent </text>
</g>
<!-- WorksheetModule&#45;&gt;WorksheetComponent  -->
<g id="edge22" class="edge">
<title>WorksheetModule&#45;&gt;WorksheetComponent </title>
<path fill="none" stroke="#000000" stroke-dasharray="5,2" d="M1483.9684,-161.9891C1483.9684,-161.9891 1483.9684,-132.145 1483.9684,-132.145"/>
<polygon fill="#000000" stroke="#000000" points="1487.4685,-132.145 1483.9684,-122.145 1480.4685,-132.1451 1487.4685,-132.145"/>
</g>
<!-- WorksheetService -->
<g id="node16" class="node">
<title>WorksheetService</title>
<ellipse fill="#fdb462" stroke="#000000" cx="1194" cy="-180" rx="81.6404" ry="18"/>
<text text-anchor="middle" x="1194" y="-175.8" font-family="Times,serif" font-size="14.00" fill="#000000">WorksheetService</text>
</g>
<!-- WorksheetService&#45;&gt;LayoutModule -->
<g id="edge15" class="edge">
<title>WorksheetService&#45;&gt;LayoutModule</title>
<path fill="none" stroke="#000000" d="M1124.4498,-189.5942C1124.4498,-196.6443 1124.4498,-205 1124.4498,-205 1124.4498,-205 978.0379,-205 978.0379,-205 978.0379,-205 978.0379,-227.8757 978.0379,-227.8757"/>
<polygon fill="#000000" stroke="#000000" points="974.538,-227.8757 978.0379,-237.8757 981.538,-227.8757 974.538,-227.8757"/>
</g>
<!-- PaletteComponent -->
<g id="node17" class="node">
<title>PaletteComponent</title>
<polygon fill="#ffffb3" stroke="#000000" points="765.9314,-198 646.0686,-198 646.0686,-162 765.9314,-162 765.9314,-198"/>
<text text-anchor="middle" x="706" y="-175.8" font-family="Times,serif" font-size="14.00" fill="#000000">PaletteComponent</text>
</g>
<!-- PaletteComponent&#45;&gt;PaletteModule -->
<g id="edge16" class="edge">
<title>PaletteComponent&#45;&gt;PaletteModule</title>
<path fill="none" stroke="#000000" d="M722.4457,-198.0109C722.4457,-198.0109 722.4457,-227.855 722.4457,-227.855"/>
<polygon fill="#000000" stroke="#000000" points="718.9457,-227.8549 722.4457,-237.855 725.9457,-227.855 718.9457,-227.8549"/>
</g>
<!-- PaletteComponent&#45;&gt;PaletteModule -->
<g id="edge18" class="edge">
<title>PaletteComponent&#45;&gt;PaletteModule</title>
<path fill="none" stroke="#000000" d="M744.0805,-198.0109C744.0805,-198.0109 744.0805,-227.855 744.0805,-227.855"/>
<polygon fill="#000000" stroke="#000000" points="740.5806,-227.8549 744.0805,-237.855 747.5806,-227.855 740.5806,-227.8549"/>
</g>
<!-- RibbonComponent -->
<g id="node19" class="node">
<title>RibbonComponent</title>
<polygon fill="#ffffb3" stroke="#000000" points="1718.0604,-274 1595.9396,-274 1595.9396,-238 1718.0604,-238 1718.0604,-274"/>
<text text-anchor="middle" x="1657" y="-251.8" font-family="Times,serif" font-size="14.00" fill="#000000">RibbonComponent</text>
</g>
<!-- RibbonComponent&#45;&gt;RibbonModule -->
<g id="edge19" class="edge">
<title>RibbonComponent&#45;&gt;RibbonModule</title>
<path fill="none" stroke="#000000" d="M1639.0543,-237.9891C1639.0543,-237.9891 1639.0543,-208.145 1639.0543,-208.145"/>
<polygon fill="#000000" stroke="#000000" points="1642.5544,-208.145 1639.0543,-198.145 1635.5544,-208.1451 1642.5544,-208.145"/>
</g>
<!-- WorksheetComponent -->
<g id="node21" class="node">
<title>WorksheetComponent</title>
<polygon fill="#ffffb3" stroke="#000000" points="1742.972,-122 1601.028,-122 1601.028,-86 1742.972,-86 1742.972,-122"/>
<text text-anchor="middle" x="1672" y="-99.8" font-family="Times,serif" font-size="14.00" fill="#000000">WorksheetComponent</text>
</g>
<!-- WorksheetComponent&#45;&gt;WorksheetModule -->
<g id="edge21" class="edge">
<title>WorksheetComponent&#45;&gt;WorksheetModule</title>
<path fill="none" stroke="#000000" d="M1641.7013,-122.1097C1641.7013,-131.897 1641.7013,-142 1641.7013,-142 1641.7013,-142 1524.0316,-142 1524.0316,-142 1524.0316,-142 1524.0316,-151.8903 1524.0316,-151.8903"/>
<polygon fill="#000000" stroke="#000000" points="1520.5317,-151.8903 1524.0316,-161.8903 1527.5317,-151.8904 1520.5317,-151.8903"/>
</g>
<!-- CountryService -->
<g id="node23" class="node">
<title>CountryService</title>
<ellipse fill="#fdb462" stroke="#000000" cx="1335" cy="-104" rx="71.7892" ry="18"/>
<text text-anchor="middle" x="1335" y="-99.8" font-family="Times,serif" font-size="14.00" fill="#000000">CountryService</text>
</g>
<!-- CountryService&#45;&gt;WorksheetModule -->
<g id="edge23" class="edge">
<title>CountryService&#45;&gt;WorksheetModule</title>
<path fill="none" stroke="#000000" d="M1407.0492,-104C1418.0793,-104 1425.8796,-104 1425.8796,-104 1425.8796,-104 1425.8796,-180 1425.8796,-180 1425.8796,-180 1433.6063,-180 1433.6063,-180"/>
<polygon fill="#000000" stroke="#000000" points="1433.6063,-183.5001 1443.6063,-180 1433.6063,-176.5001 1433.6063,-183.5001"/>
</g>
</g>
</svg>
